<svg width="141" height="17" viewBox="0 0 141 17" fill="none" xmlns="http://www.w3.org/2000/svg">
<path d="M6.77514 2.43276L2.36084 15.978V15.9578C2.28022 16.1594 2.166 16.3274 2.01818 16.4618C1.8838 16.5827 1.71583 16.6432 1.51427 16.6432C1.40676 16.6432 1.29926 16.6297 1.19176 16.6029C1.0977 16.5894 0.996913 16.5693 0.889411 16.5424H0.909567C0.143616 16.3005 -0.138577 15.8705 0.0629894 15.2524L4.6587 1.28383C4.72589 1.06883 4.84011 0.887418 5.00136 0.739603C5.17605 0.591788 5.37762 0.504443 5.60606 0.477567C5.8345 0.437254 6.05622 0.410378 6.27123 0.39694C6.48623 0.370065 6.6542 0.356628 6.77514 0.356628C6.89608 0.356628 7.06405 0.370065 7.27906 0.39694C7.49406 0.410378 7.71579 0.430535 7.94423 0.457411C8.13236 0.484286 8.31377 0.585069 8.48846 0.75976C8.67658 0.934451 8.81768 1.10914 8.91175 1.28383C9.66426 3.59512 10.4235 5.92657 11.1894 8.27818C11.9688 10.6163 12.7348 12.9411 13.4873 15.2524C13.6754 15.8705 13.3932 16.3005 12.6407 16.5424C12.5332 16.5693 12.4324 16.5894 12.3384 16.6029C12.2577 16.6297 12.1637 16.6432 12.0562 16.6432C11.868 16.6432 11.6934 16.5827 11.5321 16.4618C11.3843 16.3274 11.2768 16.1594 11.2096 15.9578V15.978L6.77514 2.43276ZM8.28689 11.6242C8.28689 12.0542 8.13236 12.4237 7.82329 12.7328C7.52766 13.0284 7.16484 13.1762 6.73483 13.1762C6.30482 13.1762 5.942 13.0284 5.64637 12.7328C5.35074 12.4237 5.20293 12.0542 5.20293 11.6242C5.20293 11.1942 5.35074 10.8313 5.64637 10.5357C5.942 10.2267 6.30482 10.0721 6.73483 10.0721C7.16484 10.0721 7.52766 10.2267 7.82329 10.5357C8.13236 10.8313 8.28689 11.1942 8.28689 11.6242Z" fill="#BDBDBD"/>
<path d="M21.3594 7.69364C21.3594 7.51895 21.3325 7.35097 21.2788 7.18972C21.225 7.01503 21.1578 6.85378 21.0772 6.70596C20.9025 6.38346 20.5397 6.2222 19.9888 6.2222H18.6987C18.1478 6.2222 17.7782 6.38346 17.5901 6.70596C17.4289 7.01503 17.3482 7.34425 17.3482 7.69364V15.6757C17.3482 16.3072 16.9787 16.623 16.2396 16.623C15.4737 16.623 15.0907 16.3072 15.0907 15.6757V7.51223C15.0907 6.41033 15.4535 5.60407 16.1791 5.09343C16.9182 4.5828 17.6371 4.32748 18.3359 4.32748H20.3717C20.6808 4.32748 21.0235 4.38795 21.3997 4.50889C21.776 4.62983 22.1388 4.81796 22.4882 5.07328C22.8241 4.81796 23.1735 4.62983 23.5363 4.50889C23.9126 4.38795 24.2687 4.32748 24.6046 4.32748H26.6203C27.3325 4.32748 28.0447 4.5828 28.7569 5.09343C29.496 5.59063 29.8655 6.39689 29.8655 7.51223V15.6757C29.8655 16.3072 29.4892 16.623 28.7367 16.623C27.9842 16.623 27.608 16.3072 27.608 15.6757V7.69364C27.608 7.51895 27.5878 7.34425 27.5475 7.16956C27.5072 6.99487 27.4333 6.83362 27.3258 6.68581L27.3459 6.70596C27.2384 6.53127 27.104 6.41033 26.9428 6.34314C26.7815 6.26252 26.5464 6.2222 26.2373 6.2222H24.9674C24.403 6.2222 24.0335 6.38346 23.8588 6.70596C23.6841 7.00159 23.5968 7.33082 23.5968 7.69364V15.6757C23.5968 16.3072 23.2272 16.623 22.4882 16.623C21.7357 16.623 21.3594 16.3072 21.3594 15.6757V7.69364Z" fill="#BDBDBD"/>
<path d="M35.3585 16.4618C34.9419 16.4618 34.5455 16.408 34.1692 16.3005C33.793 16.1796 33.4302 16.0116 33.0808 15.7966V15.8168C32.4223 15.4002 32.0931 14.6342 32.0931 13.5189V12.5312C32.0931 11.9803 32.1872 11.5032 32.3753 11.1001C32.5769 10.6835 32.8523 10.3543 33.2017 10.1124H33.1816C33.5175 9.88399 33.8736 9.71602 34.2499 9.60851C34.6261 9.48758 34.9889 9.4271 35.3383 9.4271H39.7929V7.55254C39.7929 7.2166 39.6854 6.91425 39.4704 6.64549C39.2689 6.3633 38.9195 6.2222 38.4223 6.2222H36.064C35.5533 6.2222 35.1972 6.34986 34.9957 6.60518C34.8075 6.84706 34.7135 7.13597 34.7135 7.47191V7.63317C34.7135 8.33193 34.3372 8.68131 33.5847 8.68131C32.8322 8.68131 32.4559 8.33193 32.4559 7.63317V7.45176C32.4559 6.90081 32.55 6.43721 32.7381 6.06095C32.9397 5.68469 33.2084 5.36891 33.5444 5.11359H33.5242C33.8736 4.88515 34.2364 4.69702 34.6127 4.5492C35.0024 4.40139 35.3719 4.32748 35.7213 4.32748H38.7851C39.1211 4.32748 39.4772 4.40139 39.8534 4.5492C40.2431 4.69702 40.6059 4.88515 40.9419 5.11359H40.9217C41.2711 5.36891 41.5398 5.70485 41.728 6.12142C41.9161 6.52455 42.0102 6.99487 42.0102 7.53238V15.6152C42.0102 16.2602 41.6406 16.5827 40.9016 16.5827C40.7537 16.5827 40.6126 16.576 40.4783 16.5625C40.3573 16.5491 40.2431 16.5155 40.1356 16.4618C40.0415 16.3946 39.9609 16.3072 39.8937 16.1997C39.84 16.0788 39.8131 15.9243 39.8131 15.7361L39.7929 11.3218H35.7213C35.4257 11.3218 35.1972 11.3554 35.036 11.4226C34.8747 11.4898 34.7471 11.5973 34.653 11.7451C34.5455 11.9736 34.4649 12.155 34.4111 12.2893C34.3708 12.4103 34.3507 12.5514 34.3507 12.7126V13.4987C34.3507 13.8481 34.4514 14.1169 34.653 14.305C34.868 14.4797 35.2308 14.567 35.7415 14.567H37.999C38.4962 14.567 38.7448 14.8828 38.7448 15.5144C38.7448 15.7832 38.6843 16.0116 38.5634 16.1997C38.4424 16.3744 38.2543 16.4618 37.999 16.4618H35.3585Z" fill="#BDBDBD"/>
<path d="M46.7944 15.6152C46.7944 16.2602 46.4248 16.5827 45.6858 16.5827C44.9198 16.5827 44.5368 16.2602 44.5368 15.6152V7.27035C44.5368 6.16845 44.8661 5.4025 45.5245 4.97249C46.183 4.54248 46.9422 4.32748 47.8022 4.32748H50.1001C50.5973 4.32748 50.8459 4.64327 50.8459 5.27484C50.8727 5.90642 50.6241 6.2222 50.1001 6.2222H47.9635C47.4797 6.2222 47.1639 6.31627 47.0161 6.5044C46.8683 6.69252 46.7944 6.95456 46.7944 7.2905V15.6152Z" fill="#BDBDBD"/>
<path d="M55.5938 16.4618C55.1773 16.4618 54.7809 16.408 54.4046 16.3005C54.0283 16.1796 53.6655 16.0116 53.3161 15.7966V15.8168C52.6577 15.4002 52.3285 14.6342 52.3285 13.5189V12.5312C52.3285 11.9803 52.4225 11.5032 52.6107 11.1001C52.8122 10.6835 53.0877 10.3543 53.4371 10.1124H53.4169C53.7529 9.88399 54.109 9.71602 54.4852 9.60851C54.8615 9.48758 55.2243 9.4271 55.5737 9.4271H60.0283V7.55254C60.0283 7.2166 59.9208 6.91425 59.7058 6.64549C59.5042 6.3633 59.1548 6.2222 58.6576 6.2222H56.2993C55.7887 6.2222 55.4326 6.34986 55.231 6.60518C55.0429 6.84706 54.9488 7.13597 54.9488 7.47191V7.63317C54.9488 8.33193 54.5726 8.68131 53.8201 8.68131C53.0675 8.68131 52.6913 8.33193 52.6913 7.63317V7.45176C52.6913 6.90081 52.7854 6.43721 52.9735 6.06095C53.1751 5.68469 53.4438 5.36891 53.7797 5.11359H53.7596C54.109 4.88515 54.4718 4.69702 54.848 4.5492C55.2377 4.40139 55.6073 4.32748 55.9567 4.32748H59.0205C59.3564 4.32748 59.7125 4.40139 60.0888 4.5492C60.4785 4.69702 60.8413 4.88515 61.1772 5.11359H61.1571C61.5065 5.36891 61.7752 5.70485 61.9633 6.12142C62.1515 6.52455 62.2455 6.99487 62.2455 7.53238V15.6152C62.2455 16.2602 61.876 16.5827 61.1369 16.5827C60.9891 16.5827 60.848 16.576 60.7136 16.5625C60.5927 16.5491 60.4785 16.5155 60.371 16.4618C60.2769 16.3946 60.1963 16.3072 60.1291 16.1997C60.0753 16.0788 60.0485 15.9243 60.0485 15.7361L60.0283 11.3218H55.9567C55.661 11.3218 55.4326 11.3554 55.2713 11.4226C55.1101 11.4898 54.9824 11.5973 54.8884 11.7451C54.7809 11.9736 54.7002 12.155 54.6465 12.2893C54.6062 12.4103 54.586 12.5514 54.586 12.7126V13.4987C54.586 13.8481 54.6868 14.1169 54.8884 14.305C55.1034 14.4797 55.4662 14.567 55.9768 14.567H58.2344C58.7316 14.567 58.9802 14.8828 58.9802 15.5144C58.9802 15.7832 58.9197 16.0116 58.7987 16.1997C58.6778 16.3744 58.4897 16.4618 58.2344 16.4618H55.5938Z" fill="#BDBDBD"/>
<path d="M67.9983 1.76751L68.1361 1.98404C68.0442 2.34492 67.9327 2.72548 67.8014 3.12572C67.6768 3.51941 67.5357 3.92293 67.3782 4.3363C67.2273 4.74311 67.0666 5.14663 66.896 5.54688C66.7319 5.94712 66.5679 6.33097 66.4039 6.6984H65.0555C65.1473 6.30472 65.2392 5.89135 65.3311 5.4583C65.4295 5.02525 65.5213 4.5922 65.6066 4.15914C65.6985 3.72609 65.7805 3.30616 65.8527 2.89935C65.9249 2.49255 65.9872 2.11527 66.0397 1.76751H67.9983Z" fill="#BDBDBD"/>
<path d="M77.683 9.40695C78.0189 9.40695 78.375 9.48757 78.7513 9.64883C79.141 9.79664 79.5038 9.98477 79.8397 10.2132H79.8196C80.169 10.4685 80.4377 10.7978 80.6258 11.2009C80.814 11.604 80.908 12.0878 80.908 12.6522V13.2569C80.908 14.3588 80.5452 15.1717 79.8196 15.6958C79.4702 15.9646 79.1141 16.1594 78.7513 16.2804C78.3885 16.4013 78.0324 16.4618 77.683 16.4618H74.2563C73.907 16.4618 73.5509 16.4013 73.188 16.2804C72.8252 16.1594 72.4691 15.9646 72.1197 15.6958C71.3941 15.1852 71.0313 14.3722 71.0313 13.2569V13.015C71.0313 12.4372 71.4008 12.155 72.1399 12.1684C72.8924 12.1684 73.2687 12.4506 73.2687 13.015V13.2367C73.2687 13.5592 73.3695 13.8616 73.571 14.1438C73.7726 14.4259 74.1287 14.567 74.6393 14.567H77.3C77.8106 14.567 78.1667 14.4259 78.3683 14.1438C78.5699 13.8616 78.6706 13.5592 78.6706 13.2367V12.6723C78.6706 12.4976 78.6438 12.3297 78.59 12.1684C78.5497 12.0072 78.4758 11.8661 78.3683 11.7451C78.2608 11.6107 78.1197 11.5032 77.945 11.4226C77.7703 11.342 77.5553 11.3017 77.3 11.3017H74.3571C73.6718 11.3017 72.9529 11.0598 72.2004 10.576C71.4882 10.1191 71.1321 9.33304 71.1321 8.21771V7.53238C71.1321 6.99487 71.2261 6.52455 71.4143 6.12142C71.6024 5.70485 71.8711 5.36891 72.2205 5.11359H72.2004C72.5363 4.88515 72.8924 4.69702 73.2687 4.5492C73.6449 4.40139 74.0077 4.32748 74.3571 4.32748H77.5822C77.9316 4.32748 78.2877 4.40139 78.6505 4.5492C79.0267 4.69702 79.3896 4.88515 79.7389 5.11359H79.7188C80.0682 5.36891 80.3369 5.70485 80.5251 6.12142C80.7132 6.52455 80.8073 6.99487 80.8073 7.53238V7.71379C80.8073 7.99599 80.7132 8.20427 80.5251 8.33865C80.3369 8.45959 80.0615 8.52678 79.6986 8.54021C78.9596 8.55365 78.59 8.27818 78.59 7.71379V7.55254C78.59 7.2166 78.4825 6.91425 78.2675 6.64549C78.0659 6.3633 77.7166 6.2222 77.2194 6.2222H74.7199C74.2228 6.2222 73.8667 6.3633 73.6516 6.64549C73.4501 6.91425 73.3493 7.2166 73.3493 7.55254V8.0363C73.3493 8.38568 73.4501 8.70147 73.6516 8.98366C73.8667 9.26585 74.2228 9.40695 74.7199 9.40695H77.683Z" fill="#BDBDBD"/>
<path d="M95.1394 15.6555C95.1394 16.3005 94.7363 16.623 93.93 16.623C93.1372 16.623 92.7408 16.3005 92.7408 15.6555V2.49323H89.2133C88.7296 2.49323 88.4743 2.15057 88.4474 1.46524C88.4474 0.793355 88.7027 0.457411 89.2133 0.457411H98.6668C99.1774 0.457411 99.4193 0.793355 99.3924 1.46524C99.3924 2.15057 99.1506 2.49323 98.6668 2.49323H95.1394V15.6555Z" fill="#BDBDBD"/>
<path d="M107.463 4.32748C107.812 4.32748 108.168 4.40139 108.531 4.5492C108.907 4.69702 109.27 4.88515 109.62 5.11359H109.599C109.949 5.36891 110.218 5.70485 110.406 6.12142C110.594 6.52455 110.688 6.99487 110.688 7.53238V13.2569C110.688 14.3588 110.325 15.1717 109.599 15.6958C108.887 16.2064 108.175 16.4618 107.463 16.4618H104.238C103.888 16.4618 103.532 16.4013 103.169 16.2804C102.807 16.1594 102.451 15.9646 102.101 15.6958C101.376 15.1852 101.013 14.3722 101.013 13.2569V7.53238C101.013 6.99487 101.107 6.52455 101.295 6.12142C101.483 5.70485 101.752 5.36891 102.101 5.11359H102.081C102.417 4.88515 102.773 4.69702 103.149 4.5492C103.526 4.40139 103.888 4.32748 104.238 4.32748H107.463ZM107.1 14.567C107.597 14.567 107.947 14.4259 108.148 14.1438C108.363 13.8616 108.471 13.5592 108.471 13.2367V7.55254C108.471 7.2166 108.363 6.91425 108.148 6.64549C107.947 6.3633 107.597 6.2222 107.1 6.2222H104.601C104.103 6.2222 103.747 6.3633 103.532 6.64549C103.331 6.91425 103.23 7.2166 103.23 7.55254V13.2367C103.23 13.5592 103.331 13.8616 103.532 14.1438C103.747 14.4259 104.103 14.567 104.601 14.567H107.1Z" fill="#BDBDBD"/>
<path d="M119.687 4.32748C120.036 4.32748 120.392 4.40139 120.755 4.5492C121.131 4.69702 121.494 4.88515 121.843 5.11359H121.823C122.173 5.36891 122.441 5.70485 122.63 6.12142C122.818 6.52455 122.912 6.99487 122.912 7.53238V13.2569C122.912 14.3588 122.549 15.1717 121.823 15.6958C121.111 16.2064 120.399 16.4618 119.687 16.4618H116.462C116.112 16.4618 115.756 16.4013 115.393 16.2804C115.031 16.1594 114.674 15.9646 114.325 15.6958C113.599 15.1852 113.237 14.3722 113.237 13.2569V7.53238C113.237 6.99487 113.331 6.52455 113.519 6.12142C113.707 5.70485 113.976 5.36891 114.325 5.11359H114.305C114.641 4.88515 114.997 4.69702 115.373 4.5492C115.749 4.40139 116.112 4.32748 116.462 4.32748H119.687ZM119.324 14.567C119.821 14.567 120.17 14.4259 120.372 14.1438C120.587 13.8616 120.695 13.5592 120.695 13.2367V7.55254C120.695 7.2166 120.587 6.91425 120.372 6.64549C120.17 6.3633 119.821 6.2222 119.324 6.2222H116.824C116.327 6.2222 115.971 6.3633 115.756 6.64549C115.555 6.91425 115.454 7.2166 115.454 7.55254V13.2367C115.454 13.5592 115.555 13.8616 115.756 14.1438C115.971 14.4259 116.327 14.567 116.824 14.567H119.324Z" fill="#BDBDBD"/>
<path d="M127.758 15.6757C127.758 16.3072 127.389 16.623 126.65 16.623C125.897 16.623 125.521 16.3072 125.521 15.6757V1.22336C125.521 0.591788 125.897 0.276001 126.65 0.276001C127.389 0.276001 127.758 0.591788 127.758 1.22336V15.6757Z" fill="#BDBDBD"/>
<path d="M137.09 9.40695C137.426 9.40695 137.782 9.48757 138.158 9.64883C138.548 9.79664 138.911 9.98477 139.247 10.2132H139.226C139.576 10.4685 139.845 10.7978 140.033 11.2009C140.221 11.604 140.315 12.0878 140.315 12.6522V13.2569C140.315 14.3588 139.952 15.1717 139.226 15.6958C138.877 15.9646 138.521 16.1594 138.158 16.2804C137.795 16.4013 137.439 16.4618 137.09 16.4618H133.663C133.314 16.4618 132.958 16.4013 132.595 16.2804C132.232 16.1594 131.876 15.9646 131.527 15.6958C130.801 15.1852 130.438 14.3722 130.438 13.2569V13.015C130.438 12.4372 130.808 12.155 131.547 12.1684C132.299 12.1684 132.676 12.4506 132.676 13.015V13.2367C132.676 13.5592 132.776 13.8616 132.978 14.1438C133.18 14.4259 133.536 14.567 134.046 14.567H136.707C137.218 14.567 137.574 14.4259 137.775 14.1438C137.977 13.8616 138.078 13.5592 138.078 13.2367V12.6723C138.078 12.4976 138.051 12.3297 137.997 12.1684C137.957 12.0072 137.883 11.8661 137.775 11.7451C137.668 11.6107 137.527 11.5032 137.352 11.4226C137.177 11.342 136.962 11.3017 136.707 11.3017H133.764C133.079 11.3017 132.36 11.0598 131.607 10.576C130.895 10.1191 130.539 9.33304 130.539 8.21771V7.53238C130.539 6.99487 130.633 6.52455 130.821 6.12142C131.009 5.70485 131.278 5.36891 131.627 5.11359H131.607C131.943 4.88515 132.299 4.69702 132.676 4.5492C133.052 4.40139 133.415 4.32748 133.764 4.32748H136.989C137.338 4.32748 137.695 4.40139 138.057 4.5492C138.434 4.69702 138.796 4.88515 139.146 5.11359H139.126C139.475 5.36891 139.744 5.70485 139.932 6.12142C140.12 6.52455 140.214 6.99487 140.214 7.53238V7.71379C140.214 7.99599 140.12 8.20427 139.932 8.33865C139.744 8.45959 139.468 8.52678 139.106 8.54021C138.366 8.55365 137.997 8.27818 137.997 7.71379V7.55254C137.997 7.2166 137.889 6.91425 137.674 6.64549C137.473 6.3633 137.123 6.2222 136.626 6.2222H134.127C133.63 6.2222 133.274 6.3633 133.059 6.64549C132.857 6.91425 132.756 7.2166 132.756 7.55254V8.0363C132.756 8.38568 132.857 8.70147 133.059 8.98366C133.274 9.26585 133.63 9.40695 134.127 9.40695H137.09Z" fill="#BDBDBD"/>
</svg>
